<svg version="1" xmlns="http://www.w3.org/2000/svg" width="598.667" height="598.667" viewBox="0 0 449.000000 449.000000"><path d="M24.4 3.7c.3 2.1.8 4.9 1.1 6.3.3 1.4.7 4.2 1 6.4.3 2.1.7 4.2 1 4.6.3.4.7 2.3 1 4.1.2 1.9.6 4.3.8 5.4.3 1.1.7 3.6 1.1 5.5.3 1.9.8 4.6 1.1 6 2.1 10.7 2.7 13.9 3.1 17 .2 1.9.7 4.7 1 6.2.3 1.5.5 3 .5 3.3 0 .2.5 1.9 1 3.7.5 1.8 1.2 5.3 1.5 7.8.3 2.5.7 5.3 1 6.2.6 2.1.8 3 4.5 23.3 1.7 9.3 3.3 17.9 3.5 19 .3 1.1.7 3.6 1 5.5.3 1.9.7 4.3 1 5.2.6 2 1 4.3 1.9 9.4.6 4.2 1.5 9.3 1.9 10.9.2.5.6 3 1 5.5 1.1 6.5 1.4 8.5 1.6 8.5.3 0 .7 2.2 2.5 14 .3 1.6 1 5 1.5 7.5s1.4 7.2 2 10.5c.5 3.3 1.2 7.1 1.5 8.5.3 1.4 1.2 6.5 2.1 11.5 1.5 7.9 2.8 11.2 6.6 16 2 2.5 6.4 8.5 7.8 10.5.8 1.2 5.7 7.9 10.8 14.8 5.1 7 10.5 14.3 11.8 16.2 1.4 1.9 6.2 8.5 10.7 14.6 4.5 6.2 8.9 12.2 9.7 13.4.8 1.2 2 2.8 2.5 3.4.6.6 3.4 4.4 6.3 8.5 2.9 4 5.8 7.8 6.3 8.5.7.9 11.6 15.8 18.3 25.1 6.6 9 14.7 20.2 15.3 21 .5.5 2 2.6 3.3 4.5 1.4 1.9 3 4.2 3.7 5 .6.8 6.9 9.4 13.9 19 7.1 9.6 13.2 17.7 13.6 17.8.4.2.8.8.8 1.3 0 .8 5.3 8.2 14.2 19.6 1.8 2.3 3.5 3.9 3.9 3.5.4-.4 7.5-10.1 15.8-21.7s15.9-22 16.9-23.1c.9-1.2 2.2-2.8 2.7-3.7 2.5-3.9 16.1-22.4 17.7-24.1 1-1.1 1.8-2.5 1.8-3.2 0-.7.4-1.4.8-1.6.5-.2 3.3-3.7 6.3-7.8 2.9-4.1 6.7-9.3 8.4-11.6 1.6-2.2 3.8-5.1 4.8-6.5 11-15.3 14.9-20.6 16-21.9.6-.9 2.8-3.8 4.6-6.5 1.9-2.8 3.8-5.2 4.1-5.5.4-.3 1.9-2.3 3.3-4.5s6.2-9 10.7-15c4.5-6.1 8.8-11.9 9.6-13 .7-1.1 4.2-5.8 7.6-10.5 3.5-4.7 7.7-10.6 9.3-13 1.7-2.5 3.5-5 4.1-5.5.6-.6 2.6-3.2 4.5-6 3.6-5.2 5.7-8 7.5-9.9.6-.6 1.5-3.4 1.9-6.1.5-2.8.9-5.5 1.1-6 .1-.6.4-2.6.8-4.5.3-1.9 1.5-8.7 2.7-15 1.9-10.5 2.4-13.8 3.3-19.5.2-1.1.6-3.4.9-5 .4-1.7.9-4.6 1.2-6.5.3-1.9 1-5.8 1.5-8.5.5-2.8 1.2-6.6 1.6-8.5.3-1.9 1.2-7.1 2-11.5s1.7-9.4 1.9-11c.3-1.7.7-4.1 1-5.5.3-1.4.8-3.9 1-5.5 2.2-12.4 5.3-30.2 5.9-33 .2-1.1.7-4.2 1-6.9.4-2.7.9-5.3 1.2-5.7.2-.4.7-2.9 1-5.6.3-2.6.7-5.6 1-6.5.3-1 .7-3 1-4.5.2-1.6.7-3.9.9-5.3.3-1.4.7-4.3 1.1-6.5.3-2.2.7-4.7.9-5.5.6-2.2 1.6-8.1 2.9-16.5.3-2.2 1.4-7.9 2.4-12.8 1-4.8 1.7-8.7 1.5-8.7-.2 0-3.9 1.9-8.1 4.1-4.2 2.3-11.1 5.9-15.2 8.2-4.1 2.2-9.7 5.2-12.5 6.7-2.7 1.5-8.8 4.8-13.5 7.2-7.8 4.1-21.1 11.2-33.5 17.9-2.7 1.5-8.6 4.6-13 6.9-4.4 2.4-10.2 5.5-13 7-2.7 1.5-9 4.9-14 7.5-4.9 2.6-11.2 6-14 7.5-2.7 1.5-9.9 5.4-16 8.5-13.7 7.2-17.7 9.4-19.2 10.7-.7.6-1.3.7-1.3.2 0-.5-.4-.5-.8.1-.4.5-4.6 3-9.4 5.4-7.5 3.8-9.7 4.5-15 4.5-6.5.1-10.7-1.6-28.8-11.7-3-1.7-8.2-4.6-11.5-6.4-7.6-4.2-27-14.9-34.4-18.9-4.7-2.5-40-22-49.6-27.4-1.6-.9-7-3.8-12-6.5-4.9-2.6-9.4-5.1-10-5.5-1.2-.8-6.3-3.7-19-10.5-4.9-2.7-10.6-5.8-12.5-7-1.9-1.2-5.5-3.1-8-4.4-2.5-1.2-6.3-3.3-8.5-4.6-5.8-3.5-6.8-3.3-6.1 1.2z"/></svg>